<svg xmlns="http://www.w3.org/2000/svg" viewBox="0 0 32 32" width="32" height="32">
  <rect width="32" height="32" rx="2" fill="white"/>
  <text x="16" y="13" font-family="Arial Black, Impact, sans-serif" font-size="14" font-weight="900" fill="#171717" text-anchor="middle" letter-spacing="-0.5">DC</text>
  <g fill="#E51937">
    <path d="M8.5,15.2 L9.3,17.6 L11.8,17.6 L9.8,19.1 L10.5,21.5 L8.5,20 L6.5,21.5 L7.2,19.1 L5.2,17.6 L7.7,17.6Z"/>
    <path d="M16,15.2 L16.8,17.6 L19.3,17.6 L17.3,19.1 L18,21.5 L16,20 L14,21.5 L14.7,19.1 L12.7,17.6 L15.2,17.6Z"/>
    <path d="M23.5,15.2 L24.3,17.6 L26.8,17.6 L24.8,19.1 L25.5,21.5 L23.5,20 L21.5,21.5 L22.2,19.1 L20.2,17.6 L22.7,17.6Z"/>
  </g>
  <rect x="3" y="23.5" width="26" height="2.5" fill="#E51937"/>
  <rect x="3" y="28" width="26" height="2.5" fill="#E51937"/>
</svg>
